<?xml version="1.0" encoding="UTF-8" standalone="no"?>
<svg
   xmlns:dc="http://purl.org/dc/elements/1.1/"
   xmlns:cc="http://creativecommons.org/ns#"
   xmlns:rdf="http://www.w3.org/1999/02/22-rdf-syntax-ns#"
   xmlns:svg="http://www.w3.org/2000/svg"
   xmlns="http://www.w3.org/2000/svg"
   xmlns:sodipodi="http://sodipodi.sourceforge.net/DTD/sodipodi-0.dtd"
   xmlns:inkscape="http://www.inkscape.org/namespaces/inkscape"
   width="27"
   height="20"
   viewBox="0 0 21.6 16"
   version="1.1"
   id="svg2"
   inkscape:version="0.48.1 r9760"
   sodipodi:docname="camera.svg">
  <metadata
     id="metadata19">
    <rdf:RDF>
      <cc:Work
         rdf:about="">
        <dc:format>image/svg+xml</dc:format>
        <dc:type
           rdf:resource="http://purl.org/dc/dcmitype/StillImage" />
      </cc:Work>
    </rdf:RDF>
  </metadata>
  <defs
     id="defs17" />
  <sodipodi:namedview
     pagecolor="#ffffff"
     bordercolor="#666666"
     borderopacity="1"
     objecttolerance="10"
     gridtolerance="10"
     guidetolerance="10"
     inkscape:pageopacity="0"
     inkscape:pageshadow="2"
     inkscape:window-width="1280"
     inkscape:window-height="692"
     id="namedview15"
     showgrid="false"
     inkscape:zoom="11.800001"
     inkscape:cx="35.426787"
     inkscape:cy="3.9157094"
     inkscape:window-x="0"
     inkscape:window-y="0"
     inkscape:window-maximized="0"
     inkscape:current-layer="svg2" />
  <g
     id="g3000"
     transform="matrix(0.03805443,0,0,0.03805443,-3.0382655,-2.05868)">
    <g
       id="#ffffffff" />
    <path
       d="m 186.38,68.4 c 8.43,-8.79 20.41,-14.13 32.62,-14.27 15.66,-0.06 31.31,-0.01 46.97,-0.03 7.01,-0.06 14.05,1.36 20.39,4.38 16.18,7.36 27.18,24.55 27.04,42.34 90.52,-0.01 181.05,0 271.57,0 6.84,0.02 13.81,-0.36 20.47,1.49 19.9,4.92 35.1,24.17 34.95,44.72 0.02,93.63 0.01,187.27 0,280.9 0.08,13.85 -6.54,27.48 -17.32,36.14 -8.38,6.85 -19.19,10.62 -30.01,10.45 -151.69,0 -303.37,0 -455.06,0 -8.65,-0.07 -17.55,0.64 -25.87,-2.28 -18.71,-5.87 -32.62,-24.55 -32.23,-44.25 16.04,0.02 32.08,0 48.13,0.02 18.89,-0.46 36.61,-13.51 42.72,-31.38 2.83,-7.56 2.76,-15.75 2.69,-23.7 0,-56.98 0,-113.95 0,-170.92 0.07,-7.67 0.1,-15.56 -2.54,-22.87 -4.62,-13.69 -15.9,-24.87 -29.62,-29.4 -5.9,-1.91 -12.13,-2.69 -18.32,-2.59 -14.37,0.04 -28.75,0.01 -43.12,0.01 -0.01,-12.84 5.73,-25.48 15.22,-34.09 8.37,-7.69 19.6,-12.2 30.98,-12.24 15.72,-0.04 31.43,0 47.15,-0.02 0.05,-11.97 4.83,-23.83 13.19,-32.41 m 182.2,103.4 c -30.59,3.75 -59.25,20.38 -77.87,44.9 -17.46,22.62 -26,51.83 -23.62,80.29 2.11,28.09 14.95,55.15 35.26,74.65 19.19,18.65 44.96,30.36 71.64,32.4 23.69,1.97 47.94,-3.48 68.42,-15.55 25.32,-14.74 44.72,-39.34 52.99,-67.46 7.61,-25.49 6.22,-53.58 -4.03,-78.13 -9.94,-24.1 -28.24,-44.62 -51.03,-57.28 -21.61,-12.16 -47.18,-16.99 -71.76,-13.82 m 182.86,-0.35 c -14.18,2.84 -25.84,15.19 -27.6,29.59 -2.89,17.14 9.2,35.04 26.1,38.97 16.94,4.75 36.15,-5.5 41.79,-22.12 6.07,-15.15 -0.85,-33.73 -14.74,-41.96 -7.52,-4.83 -16.86,-6 -25.55,-4.48 z"
       id="path6"
       inkscape:connector-curvature="0"
       style="fill:#000000" />
    <path
       d="m 370.63,218.78 c 13.97,-2.59 28.72,-0.86 41.66,5.02 15.12,6.79 27.66,19.14 34.65,34.18 6.01,12.72 7.95,27.29 5.65,41.16 -2.47,15.22 -10.21,29.5 -21.55,39.94 -11.17,10.38 -25.81,16.96 -41,18.33 -14.07,1.35 -28.53,-1.66 -40.84,-8.61 -13,-7.27 -23.58,-18.8 -29.68,-32.4 -6.61,-14.56 -7.92,-31.42 -3.79,-46.86 6.57,-25.6 28.85,-46.23 54.9,-50.76 z"
       id="path8"
       inkscape:connector-curvature="0"
       style="fill:#000000" />
    <path
       d="m 79.84,147.16 c 14.37,0 28.75,0.03 43.12,-0.01 6.19,-0.1 12.42,0.68 18.32,2.59 13.72,4.53 25,15.71 29.62,29.4 2.64,7.31 2.61,15.2 2.54,22.87 0,56.97 0,113.94 0,170.92 0.07,7.95 0.14,16.14 -2.69,23.7 -6.11,17.87 -23.83,30.92 -42.72,31.38 -16.05,-0.02 -32.09,0 -48.13,-0.02 0.14,-50.66 0.02,-101.33 0.06,-151.99 -0.08,-42.95 0.16,-85.9 -0.12,-128.84 z"
       id="path11"
       inkscape:connector-curvature="0"
       style="fill:#7f7f7f" />
    <path
       d="m 551.44,171.45 c 8.69,-1.52 18.03,-0.35 25.55,4.48 13.89,8.23 20.81,26.81 14.74,41.96 -5.64,16.62 -24.85,26.87 -41.79,22.12 -16.9,-3.93 -28.99,-21.83 -26.1,-38.97 1.76,-14.4 13.42,-26.75 27.6,-29.59 z"
       id="path13"
       inkscape:connector-curvature="0"
       style="fill:#7f7f7f" />
  </g>
</svg>
