<?xml version="1.0" encoding="UTF-8" standalone="no"?>
<svg
   xmlns:dc="http://purl.org/dc/elements/1.1/"
   xmlns:cc="http://creativecommons.org/ns#"
   xmlns:rdf="http://www.w3.org/1999/02/22-rdf-syntax-ns#"
   xmlns:svg="http://www.w3.org/2000/svg"
   xmlns="http://www.w3.org/2000/svg"
   xmlns:sodipodi="http://sodipodi.sourceforge.net/DTD/sodipodi-0.dtd"
   xmlns:inkscape="http://www.inkscape.org/namespaces/inkscape"
   width="20"
   height="20"
   viewBox="0 0 16 16"
   version="1.1"
   id="svg2"
   inkscape:version="0.48.1 r9760"
   sodipodi:docname="page-curl.svg">
  <metadata
     id="metadata11">
    <rdf:RDF>
      <cc:Work
         rdf:about="">
        <dc:format>image/svg+xml</dc:format>
        <dc:type
           rdf:resource="http://purl.org/dc/dcmitype/StillImage" />
      </cc:Work>
    </rdf:RDF>
  </metadata>
  <defs
     id="defs9" />
  <sodipodi:namedview
     pagecolor="#ffffff"
     bordercolor="#666666"
     borderopacity="1"
     objecttolerance="10"
     gridtolerance="10"
     guidetolerance="10"
     inkscape:pageopacity="0"
     inkscape:pageshadow="2"
     inkscape:window-width="1043"
     inkscape:window-height="618"
     id="namedview7"
     showgrid="false"
     inkscape:zoom="1.625"
     inkscape:cx="80"
     inkscape:cy="80"
     inkscape:window-x="0"
     inkscape:window-y="0"
     inkscape:window-maximized="0"
     inkscape:current-layer="svg2" />
  <g
     id="#000000ff"
     transform="matrix(0.1,0,0,0.1,1.6,1.6)">
    <path
       d="m 0,0 128,0 0,11.66 c -0.52,16.12 -1.23,32.74 -7.54,47.83 -2.16,4.88 -4.98,9.49 -8.52,13.49 -10.25,13.12 -20.38,26.32 -30.56,39.48 -3.02,3.73 -6.67,7.05 -11.08,9.04 -9.79,4.54 -20.78,5.11 -31.39,5.73 -7.95,0.72 -15.95,0.41 -23.92,0.77 L 0,128 0,0 m 15.38,15.38 c -0.01,32.38 -0.01,64.77 0.01,97.15 7.56,-0.13 15.13,-0.01 22.68,-0.64 8.84,-0.56 18.08,-0.73 26.24,-4.6 3.69,-1.68 5.62,-5.61 6.23,-9.44 1.48,-10.32 0.98,-20.77 1.22,-31.15 7.74,-0.36 15.66,0.42 23.22,-1.65 6.58,-1.98 10.38,-8.34 12.49,-14.47 3.78,-11.31 4.64,-23.34 5.04,-35.19 C 80.14,15.36 47.76,15.38 15.38,15.38 z"
       id="path5"
       inkscape:connector-curvature="0"
       style="fill:#000000" />
  </g>
</svg>
